Coordinates
version=1
nRows=8
nColumns=42
inDegrees=yes

Units are S.I. units (second, meters, Newtons, ...)
If the header above contains a line with 'inDegrees', this indicates whether rotational values are in degrees (yes) or radians (no).

endheader
time	pelvis_tilt	pelvis_list	pelvis_rotation	pelvis_tx	pelvis_ty	pelvis_tz	hip_flexion_r	hip_adduction_r	hip_rotation_r	knee_angle_r	knee_angle_r_beta	ankle_angle_r	subtalar_angle_r	mtp_angle_r	hip_flexion_l	hip_adduction_l	hip_rotation_l	knee_angle_l	knee_angle_l_beta	ankle_angle_l	subtalar_angle_l	mtp_angle_l	lumbar_extension	lumbar_bending	lumbar_rotation	sh_tx_r	sh_ty_r	sh_tz_r	sh_plane_elev_r	sh_elev_r	sh_axial_rot_r	elbow_flex_r	pro_sup_r	sh_tx_l	sh_ty_l	sh_tz_l	sh_plane_elev_l	sh_elev_l	sh_axial_rot_l	elbow_flex_l	pro_sup_l
      0.00000000	     -4.73417960	     -1.06236061	     -3.24849735	      0.32917570	      0.92258894	      0.00872456	      3.46692230	     -4.04935630	     -3.94071003	      6.90554830	      0.12052455	     -2.75111848	    -14.19326494	     -5.32932655	      2.58524620	     -6.35917594	     -8.51207285	      4.75347746	      0.08296383	      7.62450528	     -9.49806466	     -5.32932655	      1.20308481	      1.76225868	     -1.76314702	      0.00135336	     -0.01830963	     -0.00561295	      9.18792054	      5.22392902	     -1.87547860	     29.22608916	     79.74664351	      0.00174318	     -0.01794215	     -0.00520099	     10.41659250	      3.72956723	     -2.18733145	     24.13227255	     73.28889800
      0.01666670	     -6.30410099	     -0.43633395	     -3.68673505	      0.33069371	      0.92072084	      0.00828624	      5.26412020	     -4.75641622	     -4.14611386	      6.66741557	      0.11636835	      1.65022664	     -9.81165901	     -6.41598249	      4.47245992	     -5.63882792	     -9.99001859	      3.75316250	      0.06550504	      7.89122590	     -7.50901251	     -6.41598249	      3.61966321	      1.29281491	     -1.57877721	     -0.00138746	     -0.01792131	     -0.00573888	      2.94587060	      4.29638715	     -0.63081159	     29.56994138	     80.10885051	     -0.00050848	     -0.01731520	     -0.00559864	      0.98054181	      2.26698671	     -1.70166436	     24.23170609	     76.94832754
      0.03333330	     -6.92320552	      0.27649233	     -3.84433831	      0.33065765	      0.91460211	      0.00894766	      5.84484096	     -5.67512010	     -4.45550971	      6.15744604	      0.10746771	      2.17120519	     -9.25505338	     -6.59694140	      5.03007560	     -4.99180800	    -11.16757555	      3.31118530	      0.05779109	      7.93599899	     -6.15131997	     -6.59694140	      4.53518345	      0.44525364	     -1.43662400	     -0.00202942	     -0.01786922	     -0.00555611	      4.13496194	      4.21719396	     -2.46734975	     29.35077657	     77.69640825	     -0.00157247	     -0.01718476	     -0.00518031	      2.93022303	      3.10157293	     -3.26972714	     23.60921627	     74.85812298
      0.05000000	     -6.54831619	      0.74087336	     -3.73679946	      0.33076642	      0.91843514	      0.00847973	      5.19991439	     -6.32392007	     -4.68890060	      5.53391297	      0.09658500	      2.81832978	     -8.38254088	     -6.76854916	      3.95430118	     -4.34300554	    -11.12645212	      2.01669680	      0.03519800	      7.25652368	     -6.25792909	     -6.76854916	      4.14964921	     -0.29655071	     -1.66669446	      0.00062087	     -0.01804353	     -0.00545516	      3.00800665	      4.01567578	     -0.82885087	     29.72912028	     77.89558787	     -0.00427667	     -0.01716345	     -0.00486237	      0.41067042	      3.54689415	     -2.44564169	     23.74595355	     74.89276466
      0.06666670	     -6.37659555	      0.85634430	     -3.82313180	      0.33060885	      0.91928379	      0.00904087	      4.84923184	     -6.42580570	     -4.68818280	      5.10439334	      0.08908847	      3.40530798	     -7.78160008	     -6.83289932	      3.33598357	     -4.20586591	    -11.18023388	      1.29534383	      0.02260801	      7.29421108	     -5.62684712	     -6.83289932	      3.97645971	     -0.49825607	     -1.09583523	      0.00100793	     -0.01809646	     -0.00528182	      4.33547248	      4.29989233	     -0.71136495	     29.58374694	     77.18403554	     -0.00270422	     -0.01712176	     -0.00464794	      1.10816773	      4.16935553	     -2.42073604	     23.44553774	     74.30438566
      0.08333330	     -6.15364900	      0.89688616	     -3.61643651	      0.33426538	      0.92213720	      0.00395782	      4.25152508	     -6.52775197	     -4.91201363	      4.60081443	      0.08029936	      3.69860317	     -7.10018089	     -6.95531300	      2.83882324	     -3.99275227	    -10.79442292	      0.89934732	      0.01569657	      7.20280903	     -5.62205616	     -6.95531300	      3.80883130	     -0.60957609	     -1.24870166	      0.00110452	     -0.01811909	     -0.00509181	      5.22255542	      4.28792403	     -1.05966558	     29.22785221	     75.83814684	     -0.00199968	     -0.01729367	     -0.00444564	      1.35875390	      4.42163120	     -3.35060513	     23.56212311	     72.80755929
      0.10000000	     -5.93031203	      0.84735818	     -3.52227560	      0.33394991	      0.91940000	      0.00391227	      3.76820620	     -6.54486905	     -4.87941370	      4.25874974	      0.07432920	      3.93612141	     -6.95346095	     -7.03224787	      2.40623902	     -3.95279091	    -10.62519382	      0.71959428	      0.01255929	      7.56330884	     -5.17539637	     -7.03224787	      3.57989944	     -0.60339532	     -1.77320920	      0.00302380	     -0.01805213	     -0.00491986	      6.34527494	      4.44949525	     -0.41573148	     29.25891104	     75.25205442	     -0.00192777	     -0.01730532	     -0.00440692	     -0.35563820	      4.47626059	     -3.30043640	     24.13291751	     71.89078648
      0.11666670	     -5.87079660	      0.76835925	     -3.26781829	      0.33384878	      0.92227451	      0.00384405	      3.44572583	     -6.47178116	     -4.95584556	      3.93064143	      0.06860263	      4.12403892	     -6.52295117	     -7.07050519	      2.27753482	     -3.95341648	    -10.38379950	      0.60802777	      0.01061209	      7.62433543	     -4.98132665	     -7.07050519	      3.67460780	     -0.62083560	     -2.33191698	      0.00456937	     -0.01800934	     -0.00480593	      7.76897889	      4.49792678	     -0.67651406	     28.78819214	     74.12110524	     -0.00045834	     -0.01728136	     -0.00437509	      0.37044085	      4.93047874	     -3.67204373	     23.99765745	     70.79756343
